<svg width="32" height="32" viewBox="0 0 32 32" fill="none" xmlns="http://www.w3.org/2000/svg">
<g id="vuesax/linear/align-vertically">
<g id="align-vertically">
<path id="Vector" d="M23.2 25.6668H8.8C6.8 25.6668 6 24.8135 6 22.6935V21.3068C6 19.1868 6.8 18.3335 8.8 18.3335H23.2C25.2 18.3335 26 19.1868 26 21.3068V22.6935C26 24.8135 25.2 25.6668 23.2 25.6668Z" stroke="#FEDC5A" stroke-width="2" stroke-linecap="round" stroke-linejoin="round"/>
<path id="Vector_2" d="M20.5332 14.3333H11.4665C9.4665 14.3333 8.6665 13.48 8.6665 11.36V9.97333C8.6665 7.85333 9.4665 7 11.4665 7H20.5332C22.5332 7 23.3332 7.85333 23.3332 9.97333V11.36C23.3332 13.48 22.5332 14.3333 20.5332 14.3333Z" stroke="#FEDC5A" stroke-width="2" stroke-linecap="round" stroke-linejoin="round"/>
<path id="Vector_3" d="M16 29.3333V26.1333" stroke="#FEDC5A" stroke-width="2" stroke-linecap="round" stroke-linejoin="round"/>
<path id="Vector_4" d="M16 17.3332V14.6665" stroke="#FEDC5A" stroke-width="2" stroke-linecap="round" stroke-linejoin="round"/>
<path id="Vector_5" d="M16 2.6665V6.25317" stroke="#292D32" stroke-width="2" stroke-linecap="round" stroke-linejoin="round"/>
</g>
</g>
</svg>
