<svg width="32" height="32" viewBox="0 0 32 32" fill="none" xmlns="http://www.w3.org/2000/svg">
<g id="vuesax/linear/layer">
<g id="layer">
<path id="Vector" d="M17.3469 3.89326L25.2135 7.38659C27.4802 8.38659 27.4802 10.0399 25.2135 11.0399L17.3469 14.5333C16.4535 14.9333 14.9869 14.9333 14.0935 14.5333L6.22686 11.0399C3.96019 10.0399 3.96019 8.38659 6.22686 7.38659L14.0935 3.89326C14.9869 3.49326 16.4535 3.49326 17.3469 3.89326Z" stroke="#F04037" stroke-width="2" stroke-linecap="round" stroke-linejoin="round"/>
<path id="Vector_2" d="M4 14.6665C4 15.7865 4.84 17.0798 5.86667 17.5332L14.92 21.5598C15.6133 21.8665 16.4 21.8665 17.08 21.5598L26.1333 17.5332C27.16 17.0798 28 15.7865 28 14.6665" stroke="#F04037" stroke-width="2" stroke-linecap="round" stroke-linejoin="round"/>
<path id="Vector_3" d="M4 21.3335C4 22.5735 4.73333 23.6935 5.86667 24.2002L14.92 28.2268C15.6133 28.5335 16.4 28.5335 17.08 28.2268L26.1333 24.2002C27.2667 23.6935 28 22.5735 28 21.3335" stroke="#F04037" stroke-width="2" stroke-linecap="round" stroke-linejoin="round"/>
</g>
</g>
</svg>
